# xmcd
#
# Track frame offsets:
#	150
#	14840
#	30057
#	43947
#	56450
#	70172
#	86690
#	102672
#	115370
#	128900
#	141612
#	157042
#	172252
#	186522
#
# Disc length: 2710 seconds
#
# Revision: 2
# Processed by: cddbd v1.4PL0 Copyright (c) Steve Scherf et al.
# Submitted via: audiograbber 1.82.00
#
DISCID=d60a940e
DTITLE=Various Artist - Hot Hits Country Vol. 15
DYEAR=1994
DGENRE=Country
TTITLE0=Clay Walker - Dreaming With My Eyes Open
TTITLE1=Ricky Lynn Gregg - Get A Little Closer
TTITLE2=Vince Gill - What The Cowgilrs Do
TTITLE3=Orrall and Wright  - She Loves Me Like She Means It
TTITLE4=Tracy Byrd - Watermelon Crawl
TTITLE5=Billy Dean - Cowboy Band
TTITLE6=Confederate Railroad - Elvis And Andy
TTITLE7=Trisha Yearwood - XXX's and OOO;s
TTITLE8=Dwight Yoakam - Pocker Of A Clown
TTITLE9=David Lee Murphy - Fish Ain't Bitin
TTITLE10=Tanya Tucker - Hangin In
TTITLE11=John Berry - What's In It For Me
TTITLE12=Randy Travis - Whisper My Name
TTITLE13=Mark Chesnutt - She Dreams
EXTD=
EXTT0=
EXTT1=
EXTT2=
EXTT3=
EXTT4=
EXTT5=
EXTT6=
EXTT7=
EXTT8=
EXTT9=
EXTT10=
EXTT11=
EXTT12=
EXTT13=
PLAYORDER=
